<svg width="23" height="23" viewBox="0 0 23 23" fill="none" xmlns="http://www.w3.org/2000/svg">
<path d="M20.6125 8.41964C20.5548 8.24983 20.4487 8.10061 20.3072 7.99043C20.1658 7.88024 19.9951 7.81389 19.8163 7.79959L14.5872 7.38408L12.3244 2.37506C12.2523 2.21373 12.1351 2.07671 11.9869 1.98052C11.8387 1.88434 11.6658 1.8331 11.4891 1.83301C11.3124 1.83291 11.1394 1.88395 10.9911 1.97998C10.8428 2.076 10.7254 2.2129 10.6532 2.37415L8.39035 7.38408L3.1612 7.79959C2.98551 7.8135 2.81755 7.87774 2.67741 7.98462C2.53727 8.0915 2.43089 8.23648 2.371 8.40224C2.3111 8.56799 2.30023 8.74749 2.33968 8.91926C2.37913 9.09103 2.46722 9.2478 2.59344 9.37081L6.45774 13.1379L5.09106 19.0559C5.04957 19.235 5.06287 19.4225 5.12924 19.594C5.19561 19.7655 5.31199 19.913 5.46328 20.0175C5.61457 20.1221 5.79377 20.1787 5.97765 20.1801C6.16152 20.1815 6.34157 20.1276 6.49443 20.0254L11.4888 16.6958L16.4831 20.0254C16.6393 20.1291 16.8236 20.1825 17.0111 20.1784C17.1986 20.1743 17.3803 20.1129 17.5319 20.0024C17.6834 19.8919 17.7975 19.7377 17.8587 19.5604C17.92 19.3832 17.9255 19.1914 17.8746 19.0109L16.1969 13.1406L20.3575 9.39649C20.6299 9.15067 20.7299 8.76727 20.6125 8.41964Z" fill="#F3CD03"/>
</svg>
